<?xml version="1.0" standalone="no"?>
<!DOCTYPE svg PUBLIC "-//W3C//DTD SVG 20010904//EN"
 "http://www.w3.org/TR/2001/REC-SVG-20010904/DTD/svg10.dtd">
<svg version="1.0" xmlns="http://www.w3.org/2000/svg"
 width="3263.000000pt" height="3263.000000pt" viewBox="0 0 3263.000000 3263.000000"
 preserveAspectRatio="xMidYMid meet">
<metadata>
Created by potrace 1.11, written by Peter Selinger 2001-2013
</metadata>
<g transform="translate(0.000000,3263.000000) scale(0.100000,-0.100000)"
fill="#000000" stroke="none">
<path d="M20729 32625 c-3 -2 -31 -6 -64 -8 -53 -5 -129 -16 -220 -33 -247
-45 -490 -158 -705 -329 -58 -46 -195 -192 -250 -266 -69 -93 -170 -254 -170
-271 0 -6 -6 -19 -14 -27 -22 -27 -122 -269 -160 -391 -60 -194 -124 -473
-141 -620 -4 -30 -8 -58 -10 -61 -2 -3 -6 -30 -9 -60 -4 -30 -8 -70 -11 -89
-3 -19 -7 -60 -10 -90 -3 -30 -8 -71 -10 -90 -2 -19 -7 -73 -10 -120 -3 -47
-8 -107 -10 -135 -25 -331 -25 -1179 0 -1855 7 -171 15 -410 22 -645 8 -296 8
-1046 -1 -1218 -7 -125 -6 -140 10 -151 14 -11 15 -18 6 -44 l-11 -32 132
-117 c73 -65 139 -124 147 -133 8 -8 42 -39 75 -69 205 -187 371 -346 685
-661 195 -195 387 -389 425 -431 68 -74 188 -206 290 -319 28 -30 52 -57 55
-60 3 -3 34 -39 69 -80 36 -41 70 -79 75 -85 21 -19 303 -361 417 -505 168
-212 425 -560 549 -745 19 -27 37 -51 42 -53 4 -2 8 -7 8 -12 0 -4 46 -78 103
-164 56 -86 115 -178 131 -204 16 -26 44 -69 61 -97 194 -305 494 -875 663
-1260 67 -152 135 -314 138 -325 0 -3 6 -18 13 -35 78 -186 250 -689 301 -880
4 -16 18 -66 30 -110 64 -233 143 -579 175 -765 13 -79 45 -271 50 -305 3 -22
7 -51 10 -65 3 -25 9 -66 20 -165 3 -27 8 -61 10 -75 3 -14 7 -60 10 -102 4
-43 8 -86 10 -95 1 -10 6 -67 10 -128 4 -60 9 -126 11 -145 22 -212 21 -982
-1 -1215 -2 -22 -6 -74 -9 -115 -7 -100 -16 -198 -21 -236 -2 -17 -7 -57 -10
-90 -3 -32 -7 -68 -10 -79 -2 -11 -7 -45 -10 -75 -9 -86 -54 -350 -87 -515
-44 -221 -36 -187 -82 -380 -15 -60 -29 -121 -32 -135 -2 -14 -9 -36 -14 -50
-5 -14 -19 -63 -30 -110 -12 -47 -37 -137 -56 -200 -20 -63 -41 -135 -49 -160
-25 -85 -84 -265 -120 -365 -20 -55 -42 -118 -49 -140 -15 -46 -92 -250 -105
-280 -5 -11 -28 -69 -52 -130 -23 -60 -45 -114 -49 -120 -4 -5 -13 -28 -20
-50 -7 -22 -19 -51 -26 -65 -7 -14 -38 -85 -69 -159 -31 -74 -74 -172 -96
-219 -21 -46 -39 -86 -39 -87 0 -2 -18 -43 -41 -92 -23 -48 -54 -115 -69 -148
-140 -303 -623 -1266 -652 -1302 -6 -7 -7 -13 -3 -13 4 0 3 -6 -4 -13 -6 -8
-29 -49 -52 -93 -22 -43 -75 -144 -116 -224 -42 -80 -102 -194 -133 -255 -32
-60 -90 -173 -130 -250 -40 -77 -77 -146 -82 -152 -6 -7 -7 -13 -4 -13 4 0 -1
-12 -12 -27 -21 -30 -433 -855 -496 -993 -68 -147 -167 -364 -180 -395 -22
-49 -62 -137 -84 -185 -81 -178 -362 -887 -362 -913 0 -5 -6 -23 -14 -40 -53
-119 -277 -861 -319 -1057 -3 -14 -13 -56 -22 -95 -32 -140 -93 -442 -105
-520 -7 -44 -14 -89 -16 -100 -2 -11 -6 -36 -8 -55 -3 -19 -8 -53 -11 -75 -9
-55 -12 -82 -20 -145 -3 -30 -8 -71 -10 -90 -3 -19 -7 -64 -10 -100 -3 -36 -8
-87 -10 -115 -23 -244 -29 -419 -30 -795 0 -315 8 -619 20 -720 2 -19 6 -78 9
-130 4 -52 8 -106 10 -120 3 -14 7 -67 11 -117 3 -51 8 -103 10 -115 2 -13 6
-52 10 -88 4 -36 8 -78 10 -95 3 -16 7 -55 10 -85 3 -30 8 -66 10 -80 2 -14 7
-43 9 -65 5 -34 24 -173 42 -295 2 -19 9 -62 14 -95 5 -33 12 -78 15 -100 4
-22 8 -51 11 -65 2 -14 7 -41 10 -60 3 -19 16 -96 29 -170 14 -74 27 -151 30
-170 3 -19 8 -42 10 -50 2 -8 7 -31 10 -50 5 -28 39 -202 69 -355 2 -11 18
-87 36 -170 17 -82 33 -163 36 -180 3 -16 7 -36 9 -43 3 -7 16 -65 30 -130 14
-64 35 -157 46 -207 12 -49 23 -99 25 -110 6 -32 10 -49 54 -240 23 -99 43
-187 45 -195 3 -15 70 -297 79 -335 5 -20 3 21 -11 355 -15 342 -8 1053 12
1255 2 22 7 76 10 120 3 44 13 136 21 205 32 272 32 270 80 534 26 141 78 363
115 491 27 93 108 345 119 370 5 11 34 85 65 165 117 297 330 697 520 975 126
183 429 574 522 672 l26 28 -7 -28 c-8 -34 -42 -205 -52 -267 -4 -25 -8 -47
-9 -50 -2 -8 -16 -92 -21 -122 -2 -16 -6 -40 -8 -55 -3 -16 -7 -48 -11 -73 -6
-51 -12 -97 -20 -156 -3 -23 -7 -59 -10 -80 -2 -21 -7 -68 -10 -104 -19 -180
-29 -404 -29 -630 1 -242 12 -435 35 -605 6 -44 13 -98 15 -120 3 -22 9 -60
14 -85 5 -25 16 -81 24 -125 21 -111 21 -109 60 -257 145 -550 418 -1059 790
-1473 91 -102 227 -237 233 -231 2 2 -1 23 -6 47 -5 24 -12 60 -15 79 -3 19
-8 46 -10 60 -12 60 -44 333 -52 435 -3 39 -7 90 -9 115 -27 311 -22 885 10
1300 3 47 8 110 11 140 2 30 6 71 9 90 2 19 7 64 10 100 3 36 8 76 10 90 2 14
7 54 10 90 3 36 8 74 10 85 2 11 7 43 10 70 3 28 8 64 10 80 3 17 7 48 10 70
8 55 35 234 40 268 3 15 7 42 10 60 8 49 24 138 31 177 3 19 8 44 9 55 5 33
55 296 70 365 8 36 28 128 44 205 16 77 32 151 35 165 5 24 54 239 61 270 2 8
15 62 30 120 14 58 28 112 30 120 90 383 298 1104 483 1680 68 212 275 821
291 855 5 11 16 43 26 70 9 28 20 59 25 70 4 11 22 61 40 110 44 124 140 386
151 410 4 11 42 108 83 215 77 202 267 682 291 735 8 17 38 91 68 165 49 119
256 608 317 745 12 28 29 66 37 85 9 19 42 96 75 170 33 74 70 158 83 185 43
94 157 350 167 375 13 34 10 30 -70 -90 -258 -391 -546 -650 -827 -746 -70
-24 -96 -27 -210 -28 -112 -1 -140 2 -203 23 -92 30 -186 90 -208 132 -33 64
-23 200 26 354 50 160 146 361 307 645 175 309 519 822 962 1433 336 465 327
452 476 692 295 475 564 940 810 1400 60 112 283 557 323 645 16 36 48 105 71
153 23 49 41 90 41 92 0 2 15 37 34 77 145 312 341 838 465 1245 66 218 161
585 161 626 0 9 3 17 8 17 4 0 7 -24 6 -52 -8 -238 -17 -492 -19 -533 -5 -109
-17 -323 -20 -370 -14 -189 -17 -234 -20 -265 -2 -19 -6 -73 -10 -120 -3 -47
-8 -92 -10 -100 -2 -8 -7 -51 -10 -95 -4 -44 -8 -91 -10 -105 -2 -14 -7 -54
-10 -90 -4 -36 -9 -73 -11 -84 -2 -10 -6 -44 -9 -75 -4 -31 -8 -65 -10 -76 -6
-45 -15 -102 -20 -140 -40 -286 -115 -685 -186 -990 -22 -93 -42 -177 -44
-185 -44 -192 -149 -551 -241 -826 -63 -191 -181 -517 -209 -579 -8 -16 -32
-77 -55 -135 -23 -58 -52 -129 -65 -158 -14 -29 -25 -55 -25 -58 0 -3 -12 -31
-26 -62 -42 -90 -66 -147 -60 -141 18 18 398 663 533 904 199 356 409 768 522
1025 35 80 75 168 88 197 12 28 23 54 23 56 0 3 8 22 17 43 9 22 18 44 19 49
2 6 30 79 63 163 84 215 209 600 257 791 2 9 10 43 19 76 21 86 83 374 90 420
4 22 9 48 11 58 3 10 8 35 10 55 2 20 9 62 14 92 5 30 12 75 15 100 3 25 10
79 15 120 6 41 11 87 12 103 1 15 6 27 10 27 4 0 5 -26 3 -57 -2 -32 -7 -121
-10 -198 -3 -77 -8 -158 -10 -180 -2 -22 -7 -76 -11 -120 -15 -194 -21 -253
-39 -400 -2 -16 -7 -57 -10 -90 -3 -33 -8 -71 -10 -85 -3 -14 -7 -41 -10 -60
-3 -19 -12 -80 -20 -135 -8 -55 -17 -116 -20 -135 -3 -19 -12 -69 -19 -110 -8
-41 -17 -91 -20 -110 -3 -19 -8 -46 -11 -60 -3 -14 -10 -50 -16 -80 -18 -96
-20 -103 -40 -195 -11 -49 -22 -101 -25 -115 -23 -120 -126 -524 -191 -750
-24 -85 -46 -162 -48 -170 -22 -96 -258 -814 -372 -1130 -116 -321 -260 -705
-298 -795 -7 -16 -31 -77 -53 -135 -47 -122 -260 -662 -392 -995 -50 -126
-141 -358 -201 -515 -61 -157 -114 -294 -118 -305 -11 -25 -69 -180 -83 -220
-5 -16 -14 -39 -19 -50 -5 -11 -25 -65 -45 -120 -273 -756 -446 -1306 -588
-1870 -59 -233 -108 -438 -108 -450 0 -2 -6 -33 -15 -67 -8 -35 -16 -73 -19
-85 -2 -13 -6 -33 -8 -45 -3 -13 -10 -48 -15 -78 -6 -30 -13 -66 -16 -80 -7
-38 -53 -300 -59 -340 -3 -19 -7 -44 -10 -55 -2 -11 -7 -45 -10 -76 -4 -31 -8
-65 -10 -75 -4 -19 -8 -62 -21 -194 -4 -36 -8 -79 -10 -97 -27 -237 -27 -993
0 -1293 10 -110 17 -176 20 -210 2 -19 6 -64 10 -100 3 -36 8 -81 10 -100 3
-19 7 -53 9 -75 6 -44 44 -325 51 -365 61 -385 77 -463 83 -390 3 43 65 327
113 515 64 255 185 661 234 785 8 19 28 76 45 125 17 50 35 99 40 110 5 11 30
74 55 140 50 130 66 168 155 375 144 333 418 879 600 1195 12 22 34 60 48 85
14 25 36 62 49 82 12 21 23 40 23 43 0 3 29 53 65 111 36 59 65 108 65 110 0
2 15 27 33 57 17 29 37 61 44 72 188 321 1023 1592 1231 1874 156 212 401 515
626 775 140 163 274 316 315 361 25 28 69 77 96 109 28 33 57 66 66 75 8 9 80
90 160 181 79 91 146 167 149 170 3 3 57 66 120 140 134 157 161 189 176 204
8 9 349 434 398 496 149 192 394 549 516 755 267 450 457 923 524 1309 6 33 6
33 -59 -54 -94 -125 -331 -412 -436 -525 -20 -22 -63 -69 -95 -104 -113 -124
-281 -296 -592 -605 -706 -700 -796 -792 -967 -981 -54 -60 -102 -112 -105
-115 -4 -3 -68 -79 -144 -170 -276 -330 -471 -606 -681 -965 -39 -66 -65 -102
-66 -90 0 11 -3 47 -5 80 -6 103 -6 665 0 775 12 226 18 305 32 450 4 41 8 86
9 100 3 36 17 162 20 180 2 8 6 44 10 80 4 36 9 72 10 81 2 9 6 40 10 70 7 58
8 67 25 174 7 39 14 84 16 100 3 17 9 53 14 80 5 28 12 66 15 85 5 29 25 138
81 425 2 11 13 61 24 110 11 50 22 101 24 115 8 43 46 210 72 320 14 58 28
116 30 130 3 14 14 61 26 105 11 44 22 91 25 105 2 14 27 117 55 230 27 113
51 210 52 215 2 6 6 24 10 40 4 17 18 75 31 130 72 297 176 740 189 805 3 14
19 92 36 174 16 82 32 167 35 189 3 21 7 42 9 46 2 3 7 31 10 61 4 30 8 66 11
80 27 158 56 450 72 715 15 253 7 1080 -11 1195 -3 14 -7 68 -10 120 -4 53 -8
105 -10 115 -2 11 -7 61 -11 110 -10 113 -11 117 -19 190 -4 33 -9 74 -11 90
-13 107 -30 232 -39 285 -5 26 -26 166 -31 209 -4 28 -13 81 -20 121 -3 14 -7
40 -10 58 -10 63 -16 98 -30 177 -8 44 -17 94 -20 110 -11 66 -16 92 -25 140
-6 28 -21 106 -35 175 -21 109 -91 448 -100 490 -2 8 -11 53 -21 100 -25 127
-27 128 -73 28 -74 -159 -143 -383 -191 -618 -12 -58 -23 -109 -24 -115 -2 -5
-6 -32 -10 -60 -4 -27 -10 -61 -12 -75 -20 -118 -44 -275 -49 -320 -3 -30 -8
-62 -10 -70 -2 -8 -6 -37 -10 -65 -3 -27 -8 -61 -10 -75 -2 -14 -11 -76 -20
-138 -9 -62 -18 -121 -20 -131 -2 -10 -6 -42 -10 -72 -8 -72 -14 -89 -29 -89
-23 0 -148 122 -209 205 -149 201 -300 506 -406 824 -42 126 -101 336 -115
416 -2 11 -11 58 -19 105 -21 112 -25 141 -34 236 -9 99 -10 334 -1 434 9 100
45 271 69 329 11 25 28 64 37 86 114 268 283 490 466 612 149 98 265 133 429
129 211 -6 343 -77 527 -286 164 -186 353 -594 490 -1060 12 -41 28 -95 36
-120 29 -99 135 -541 150 -625 2 -16 7 -37 9 -45 10 -31 165 -810 184 -925 12
-66 23 -131 25 -145 8 -46 43 -292 51 -365 7 -60 16 -136 20 -175 2 -19 7 -73
11 -120 3 -47 8 -103 9 -125 25 -286 25 -1020 0 -1275 -2 -19 -6 -74 -10 -121
-4 -48 -8 -98 -10 -113 -1 -14 -6 -54 -9 -89 -4 -34 -9 -78 -11 -97 -3 -19 -7
-55 -10 -80 -6 -48 -24 -178 -30 -220 -2 -14 -7 -47 -11 -75 -3 -27 -8 -59
-10 -70 -2 -11 -9 -47 -14 -80 -13 -75 -47 -265 -65 -355 -27 -136 -88 -401
-131 -570 -30 -118 -57 -223 -59 -233 -28 -123 -255 -885 -311 -1040 -36 -101
-29 -104 12 -7 38 89 50 118 80 185 9 22 18 42 19 45 1 3 6 16 12 30 6 14 34
81 63 150 29 69 58 139 65 155 8 17 30 71 50 120 19 50 40 99 45 110 37 79
355 907 390 1015 5 14 38 111 75 215 81 233 246 762 270 865 2 8 19 74 38 145
34 127 45 173 86 345 19 81 74 341 85 405 3 17 8 41 11 55 2 13 7 40 10 60 3
20 8 47 11 60 2 14 7 41 9 60 3 19 7 46 10 60 6 30 12 69 20 130 3 25 8 56 10
70 2 14 9 70 15 125 6 55 13 110 15 121 2 12 6 61 10 110 4 49 8 100 10 113
19 119 27 831 11 1056 -5 66 -10 138 -11 160 -4 62 -15 166 -21 210 -10 69
-12 88 -19 145 -3 30 -13 96 -21 145 -8 50 -17 101 -19 115 -14 87 -35 202
-44 240 -5 25 -12 56 -15 70 -50 270 -187 748 -331 1160 -222 631 -660 1536
-1104 2280 -28 47 -58 99 -67 115 -63 113 -455 738 -636 1015 -168 257 -662
997 -672 1008 -10 11 -13 11 -13 0 0 -7 -6 -47 -12 -88 -7 -41 -14 -91 -17
-110 -22 -145 -99 -463 -148 -615 -99 -301 -231 -535 -382 -680 -71 -68 -98
-91 -123 -104 l-23 -13 7 59 c3 32 8 72 11 88 5 38 11 99 21 217 15 182 7 764
-12 888 -2 14 -7 58 -10 99 -4 41 -9 84 -11 95 -2 10 -6 42 -9 70 -7 55 -70
425 -80 466 -3 14 -9 39 -11 55 -38 217 -258 934 -344 1120 -5 11 -27 63 -48
115 -220 532 -524 1069 -856 1507 -125 165 -226 289 -226 277 0 -5 24 -74 53
-154 148 -402 359 -1097 401 -1320 2 -14 14 -68 25 -120 22 -103 22 -101 51
-270 20 -118 26 -156 36 -248 3 -29 7 -61 9 -71 25 -131 26 -690 1 -816 -2
-11 -7 -42 -10 -70 -13 -90 -17 -109 -42 -210 -92 -370 -268 -661 -532 -881
-94 -79 -88 -74 -187 -135 -132 -81 -377 -192 -422 -192 -7 0 -13 -4 -13 -8 0
-5 38 -122 85 -261 397 -1178 532 -1602 681 -2135 l53 -193 -45 -112 c-131
-324 -294 -578 -447 -697 -111 -85 -201 -119 -320 -119 -92 0 -170 22 -265 73
-302 166 -631 627 -942 1320 -44 99 -85 188 -90 197 -6 10 -10 22 -10 28 0 5
-11 33 -24 62 -98 214 -317 868 -371 1108 -2 8 -17 72 -34 142 -57 239 -86
383 -96 488 -36 360 -39 637 -10 860 27 206 112 413 211 514 73 74 169 122
272 135 41 5 84 8 95 6 12 -2 49 -6 82 -10 216 -24 556 -190 906 -444 16 -11
19 -11 20 0 0 8 2 21 4 29 18 86 35 171 39 200 3 19 8 49 11 65 17 101 22 136
50 385 25 224 25 921 0 1045 -2 11 -7 52 -10 90 -3 39 -7 81 -10 95 -2 14 -7
48 -10 75 -5 47 -8 70 -20 140 -3 17 -10 59 -15 95 -6 36 -13 76 -15 90 -4 22
-51 243 -60 280 -17 72 -36 148 -55 215 -12 44 -23 87 -25 95 -4 18 -44 147
-78 251 -25 78 -82 239 -97 274 -4 11 -23 58 -41 105 -157 408 -426 926 -671
1292 -32 48 -58 92 -58 97 0 5 -4 11 -8 13 -5 2 -28 32 -52 68 -24 36 -48 70
-52 75 -5 6 -52 69 -105 140 -113 152 -194 254 -301 375 l-31 35 -1 -185 c0
-102 -2 -212 -5 -245 -12 -156 -16 -202 -20 -225 -2 -14 -6 -47 -10 -75 -11
-92 -55 -299 -84 -397 -112 -382 -316 -692 -561 -850 -183 -119 -322 -159
-530 -153 -148 4 -168 8 -282 45 -176 59 -331 157 -481 305 -189 187 -338 437
-437 733 -45 136 -93 336 -106 445 -2 25 -7 55 -9 66 -3 19 -18 198 -18 226 0
22 14 135 18 147 2 7 6 30 9 50 5 33 24 104 57 214 18 62 116 241 174 319 211
286 550 489 1010 604 116 28 149 35 225 46 19 3 44 7 55 10 11 2 29 4 40 5 34
2 -43 26 -207 64 -84 19 -166 38 -183 41 -28 4 -45 8 -105 20 -14 2 -47 7 -75
10 -27 4 -57 8 -65 10 -8 3 -40 7 -70 11 -30 3 -73 8 -95 10 -51 7 -491 14
-496 9z m7428 -15622 c-3 -10 -5 -4 -5 12 0 17 2 24 5 18 2 -7 2 -21 0 -30z"/>
<path d="M16767 32058 c-70 -117 -161 -267 -202 -333 -218 -355 -437 -724
-580 -980 -45 -80 -237 -462 -279 -555 -55 -121 -158 -379 -194 -485 -72 -216
-139 -461 -145 -537 -2 -32 -12 -19 -31 45 -25 78 -91 217 -136 282 -126 185
-294 278 -505 279 -119 1 -172 -6 -285 -40 -101 -31 -177 -62 -285 -116 -84
-43 -236 -128 -245 -137 -3 -4 -21 -15 -40 -25 -19 -11 -102 -64 -185 -119
-138 -92 -260 -181 -748 -551 -334 -253 -581 -398 -819 -481 l-77 -27 -63 35
c-35 19 -184 96 -333 172 -632 322 -874 466 -1132 671 -90 72 -327 301 -398
384 -51 60 -131 162 -174 224 -22 33 -42 55 -42 50 -1 -5 -3 -27 -4 -49 -4
-62 -16 -217 -19 -245 -12 -91 -19 -140 -37 -255 -11 -71 -21 -137 -24 -145
-2 -8 -6 -33 -10 -55 -9 -62 -15 -99 -20 -115 -2 -8 -7 -31 -10 -50 -3 -19 -8
-42 -10 -50 -2 -8 -7 -31 -10 -50 -3 -19 -26 -139 -51 -266 -24 -128 -47 -245
-49 -260 -2 -16 -15 -94 -29 -173 -14 -79 -32 -193 -41 -255 -9 -61 -18 -127
-21 -146 -3 -19 -7 -53 -10 -75 -2 -22 -6 -58 -8 -80 -16 -133 -21 -237 -21
-460 0 -137 4 -284 8 -325 51 -481 227 -829 541 -1064 l78 -59 -79 -74 c-43
-42 -119 -114 -168 -162 -50 -47 -133 -124 -184 -171 -52 -47 -99 -90 -105
-95 -9 -9 -142 -125 -359 -312 -78 -67 -457 -368 -595 -471 -752 -566 -1554
-1066 -2537 -1584 -188 -99 -923 -464 -1110 -551 -77 -36 -178 -83 -225 -105
-47 -22 -186 -86 -310 -142 -124 -56 -263 -119 -308 -141 -46 -21 -89 -39 -96
-39 -7 0 -16 -4 -21 -9 -6 -5 -68 -35 -140 -66 -71 -31 -158 -70 -193 -86 -35
-16 -65 -29 -67 -29 -2 0 -39 -16 -82 -36 -120 -56 -203 -94 -263 -121 -103
-47 -185 -85 -265 -123 -44 -21 -109 -52 -145 -68 -98 -45 -504 -244 -685
-335 -88 -44 -209 -105 -268 -135 -65 -32 -106 -58 -103 -65 2 -7 27 -62 55
-123 73 -161 144 -387 157 -498 3 -22 7 -43 9 -46 2 -4 7 -31 10 -61 3 -30 9
-88 14 -129 9 -79 7 -410 -3 -470 -3 -19 -10 -73 -16 -120 -12 -97 -13 -102
-41 -236 -11 -55 -23 -110 -25 -124 -23 -123 -220 -775 -264 -875 -25 -57
-219 -653 -245 -755 -3 -8 -16 -57 -29 -108 -29 -108 -72 -300 -80 -357 -6
-42 -13 -87 -20 -120 -28 -130 -28 -559 -1 -705 1 -8 6 -35 10 -60 12 -76 55
-230 92 -330 41 -112 143 -321 159 -327 6 -2 35 10 64 27 243 143 633 290 942
354 117 24 290 57 318 60 19 2 64 9 100 14 36 6 92 13 125 17 33 3 74 8 90 10
17 2 62 7 100 10 39 3 86 8 105 10 44 4 186 16 375 30 44 3 105 8 135 10 30 3
87 7 125 10 148 11 309 28 475 51 46 7 137 22 265 44 231 41 535 142 768 255
50 24 81 35 67 24 -48 -39 -56 -45 -140 -110 -461 -356 -930 -613 -1593 -873
-89 -35 -171 -67 -182 -71 -11 -4 -24 -9 -30 -11 -5 -1 -59 -21 -120 -44 -109
-42 -447 -165 -495 -180 -14 -5 -155 -56 -315 -115 -159 -58 -323 -118 -363
-133 -39 -14 -72 -28 -72 -31 0 -3 10 -11 23 -17 12 -6 67 -34 122 -64 571
-304 1074 -512 1530 -631 120 -31 380 -84 460 -94 28 -3 59 -8 70 -10 11 -2
56 -7 100 -10 44 -4 96 -9 115 -11 49 -5 361 -5 445 0 87 6 214 20 279 32 30
4 184 33 216 39 55 11 293 77 330 92 8 3 21 7 27 9 26 5 162 58 288 112 482
207 1114 618 1759 1146 230 187 523 438 666 570 30 28 89 81 130 117 77 68 90
80 196 178 33 31 101 93 150 137 133 122 140 129 253 233 57 53 113 104 125
114 11 10 61 55 110 100 132 121 135 124 210 191 64 57 145 130 205 184 13 13
40 35 59 50 19 15 51 43 71 62 21 19 61 55 91 80 29 25 88 74 129 110 42 36
108 91 146 122 l70 56 605 2 c333 1 629 2 658 2 28 1 52 -2 53 -6 0 -4 -37
-48 -83 -98 -46 -51 -92 -102 -103 -114 -11 -12 -60 -66 -110 -119 -49 -54
-97 -106 -105 -116 -9 -9 -61 -65 -115 -124 -55 -59 -113 -122 -129 -139 -45
-48 -238 -255 -271 -291 -69 -72 -285 -303 -316 -335 -35 -38 -358 -377 -424
-445 -22 -23 -137 -142 -255 -265 -118 -122 -244 -252 -279 -289 -55 -57 -287
-294 -904 -925 -77 -77 -392 -397 -700 -710 -309 -312 -632 -639 -717 -726
-393 -400 -959 -976 -1060 -1080 -268 -276 -560 -578 -591 -611 -19 -20 -127
-133 -240 -250 -114 -118 -222 -230 -240 -250 -19 -20 -104 -110 -190 -200
-86 -90 -169 -177 -184 -194 -21 -24 -132 -143 -255 -275 -8 -9 -51 -56 -95
-105 -118 -132 -149 -167 -161 -179 -21 -22 -180 -203 -229 -261 -27 -32 -64
-75 -82 -94 -66 -75 -219 -259 -354 -429 -78 -98 -149 -186 -158 -197 -9 -11
-36 -47 -61 -80 -24 -33 -49 -65 -55 -71 -10 -12 -92 -123 -222 -304 -147
-205 -430 -642 -528 -817 -197 -353 -301 -560 -412 -823 -24 -58 -48 -114 -53
-125 -77 -170 -221 -625 -270 -850 -12 -55 -24 -109 -26 -120 -12 -51 -48
-268 -59 -355 -25 -206 -30 -294 -30 -545 0 -213 7 -388 19 -480 3 -17 7 -52
10 -79 16 -138 56 -337 101 -511 48 -184 57 -213 115 -375 71 -199 79 -221 94
-255 8 -16 40 -88 71 -160 143 -321 338 -667 583 -1035 129 -194 243 -359 289
-419 6 -9 87 -117 180 -241 92 -124 175 -234 184 -245 21 -25 226 -289 288
-370 25 -33 56 -71 69 -85 l23 -25 -6 85 c-3 47 -8 92 -10 100 -2 8 -7 53 -10
100 -3 47 -7 105 -10 130 -3 41 -8 105 -20 245 -26 320 -26 922 0 1177 6 57
16 137 20 157 1 9 6 45 10 81 4 36 8 67 10 70 2 3 6 24 9 46 4 22 9 51 11 64
3 14 7 36 10 50 3 14 9 40 14 58 5 17 8 32 6 32 -3 0 0 11 5 25 5 14 12 36 14
48 6 34 56 209 65 232 5 11 23 61 41 110 47 132 178 394 257 515 215 326 473
570 862 813 486 303 1027 505 1510 562 30 4 63 8 73 10 126 25 623 24 813 0
17 -2 55 -7 85 -11 30 -3 65 -8 77 -9 31 -4 104 -16 128 -22 11 -2 31 -6 45
-9 14 -3 32 -7 40 -9 8 -2 31 -7 50 -10 226 -38 749 -208 1020 -332 30 -14 77
-34 104 -45 107 -42 551 -269 693 -355 40 -23 75 -43 78 -43 6 0 309 -183 315
-190 3 -4 12 -9 20 -12 18 -8 308 -198 495 -325 234 -159 634 -449 918 -666
142 -108 495 -379 517 -397 11 -8 28 -22 38 -30 11 -8 53 -41 93 -72 213 -166
515 -400 522 -405 20 -12 -113 209 -236 392 -90 135 -309 441 -361 505 -6 9
-32 42 -56 75 -125 167 -412 527 -609 765 -125 150 -134 161 -146 174 -6 6
-28 34 -50 61 -22 28 -45 55 -51 60 -6 6 -33 37 -60 70 -27 33 -52 62 -55 65
-3 3 -35 39 -70 80 -35 41 -78 91 -95 110 -17 19 -89 100 -160 180 -71 80
-133 150 -139 156 -5 6 -50 55 -100 109 -379 415 -679 703 -930 891 -408 308
-887 556 -1399 725 -108 35 -309 94 -353 104 -27 5 -155 35 -178 40 -24 6
-239 44 -281 49 -16 3 -51 7 -79 11 -27 3 -61 8 -75 11 -14 2 -63 7 -110 10
-47 3 -101 8 -120 10 -51 5 -501 5 -530 0 -14 -2 -63 -7 -110 -11 -47 -4 -92
-8 -101 -10 -8 -1 -40 -6 -70 -9 -55 -7 -95 -13 -139 -21 -14 -3 -36 -7 -50
-10 -343 -62 -709 -198 -1060 -391 -416 -229 -661 -380 -875 -542 -55 -42
-102 -78 -105 -81 -3 -3 -34 -31 -70 -61 -124 -104 -328 -318 -390 -410 -13
-19 -27 -37 -31 -40 -23 -17 -142 -217 -204 -345 -67 -134 -156 -371 -176
-465 -4 -19 -16 -78 -27 -130 -11 -52 -23 -119 -27 -149 -4 -30 -8 -62 -10
-72 -4 -20 -13 -114 -20 -199 -6 -73 -6 -470 0 -540 13 -148 36 -354 42 -363
3 -6 1 -7 -5 -4 -8 6 -15 38 -27 127 -1 8 -8 51 -14 96 -6 44 -13 98 -15 120
-35 340 -40 430 -41 719 0 305 10 493 41 730 4 35 9 67 29 182 2 14 8 47 12
72 4 25 8 48 8 51 10 44 26 120 29 135 2 11 14 58 26 105 12 47 24 96 26 108
9 44 95 315 136 426 116 319 279 658 461 961 163 272 575 865 758 1090 9 11
83 103 165 205 154 193 290 358 308 375 6 6 23 26 37 45 15 19 37 46 51 60 13
14 51 56 83 95 33 38 65 75 70 81 6 6 39 44 75 84 36 41 76 86 90 101 14 15
38 42 55 60 51 58 287 315 395 429 134 142 361 381 471 495 75 77 158 163 185
191 27 29 198 204 380 390 182 187 367 376 410 421 247 255 347 359 438 453
106 111 340 360 366 390 8 10 58 64 110 120 127 138 136 148 265 295 39 43 77
86 85 95 55 59 238 274 352 411 20 24 44 54 55 66 28 33 45 54 83 103 19 25
37 47 40 50 31 25 360 460 565 745 87 121 172 239 189 261 17 23 38 51 46 63
8 12 107 149 219 304 256 354 642 893 695 972 23 33 44 62 47 65 27 24 673
982 859 1275 185 290 442 722 555 930 21 39 42 74 46 80 5 5 37 10 72 11 93 2
423 15 492 19 33 2 107 6 165 10 143 8 232 14 315 20 39 3 95 7 125 9 56 4
159 13 240 21 25 3 70 7 100 10 30 3 75 7 100 10 25 2 68 7 95 10 28 3 66 8
85 10 19 2 60 7 90 10 98 11 472 65 585 85 61 10 126 22 145 25 19 3 67 12
105 20 39 8 86 17 105 20 19 3 64 13 100 21 36 9 76 18 90 20 187 35 659 169
902 255 1109 394 1803 975 2117 1772 78 197 148 497 166 709 2 20 12 63 23 95
12 32 28 83 37 113 20 67 55 189 61 210 40 159 73 270 77 262 7 -10 22 -63 62
-217 14 -55 30 -113 35 -130 8 -28 73 -324 85 -390 14 -77 56 -324 61 -355 2
-19 6 -48 9 -65 2 -16 7 -51 10 -77 8 -79 16 -141 20 -173 4 -32 10 -97 22
-260 15 -205 8 -714 -12 -895 -21 -186 -23 -200 -45 -325 -220 -1220 -930
-1864 -2062 -1869 -111 -1 -118 -2 -119 -21 -1 -11 -2 -31 -4 -45 -1 -14 -5
-61 -9 -105 -3 -44 -8 -91 -11 -105 -2 -14 -7 -45 -10 -70 -9 -65 -41 -242
-60 -330 -9 -41 -18 -86 -21 -99 -43 -209 -182 -614 -295 -859 -22 -46 -39
-86 -39 -88 0 -21 -230 -456 -332 -627 -32 -55 -58 -101 -58 -103 0 -3 -8 -17
-19 -32 -10 -15 -52 -81 -92 -147 -40 -66 -167 -268 -282 -450 -573 -902 -767
-1250 -992 -1780 -201 -475 -398 -1093 -550 -1731 -53 -222 -116 -499 -130
-574 -2 -14 -22 -111 -44 -215 -22 -105 -42 -202 -44 -215 -13 -69 -108 -558
-113 -580 -9 -37 -12 -54 -18 -96 -4 -22 -8 -46 -11 -54 -2 -8 -6 -31 -9 -50
-5 -33 -29 -155 -41 -210 -3 -14 -8 -41 -11 -60 -3 -19 -7 -42 -9 -50 -3 -8
-7 -33 -11 -55 -3 -22 -8 -43 -10 -46 -2 -3 -6 -21 -9 -40 -3 -19 -12 -65 -20
-104 -23 -107 -18 -101 31 45 47 141 110 321 124 355 5 11 39 97 76 190 37 94
82 203 100 243 19 41 34 75 34 77 0 14 251 528 323 660 98 181 225 401 293
506 24 38 44 72 44 75 0 2 5 10 10 17 6 7 51 73 100 149 84 129 272 397 339
483 17 22 34 45 38 50 73 98 304 385 338 421 5 6 33 37 60 68 209 243 535 576
775 792 140 126 359 309 515 429 50 38 92 72 95 75 3 3 61 48 130 99 69 52
170 129 225 171 55 42 147 112 205 156 57 43 114 86 125 95 11 9 99 80 196
157 383 307 678 589 943 902 41 49 157 200 153 200 -2 0 -14 -9 -26 -19 -42
-37 -201 -146 -288 -199 -178 -107 -457 -230 -663 -292 -124 -37 -293 -80
-298 -75 -3 3 75 121 177 265 17 25 39 56 49 70 27 40 185 264 194 275 8 10
202 284 360 509 135 191 406 597 493 736 81 130 225 369 225 374 0 2 23 43 51
92 96 167 252 484 325 664 19 47 39 95 44 108 107 249 222 655 275 972 22 128
23 135 30 210 4 36 9 73 10 82 27 137 27 753 0 988 -2 19 -6 60 -9 90 -19 174
-52 375 -92 560 -3 14 -7 36 -10 50 -48 239 -188 706 -308 1028 -123 330 -307
753 -476 1092 -60 121 -60 107 -6 340 l33 144 70 -94 c38 -52 87 -122 109
-155 21 -33 42 -61 47 -63 4 -2 7 -8 7 -13 0 -6 18 -36 40 -69 129 -190 372
-653 599 -1145 79 -170 166 -357 192 -414 27 -57 49 -105 49 -107 0 -2 29 -63
64 -136 35 -73 78 -164 96 -203 18 -38 51 -108 72 -155 22 -47 55 -116 73
-155 28 -60 191 -419 245 -540 10 -22 37 -85 60 -140 23 -55 48 -113 55 -130
7 -16 32 -77 55 -135 22 -58 45 -114 50 -125 32 -73 165 -452 174 -500 11 -52
23 -187 33 -360 13 -241 6 -849 -11 -942 -2 -10 -7 -54 -10 -99 -4 -44 -9 -92
-11 -105 -2 -13 -6 -51 -10 -84 -3 -33 -10 -89 -15 -125 -5 -36 -12 -89 -15
-119 -4 -30 -9 -63 -11 -75 -2 -12 -6 -39 -9 -61 -3 -22 -7 -51 -10 -65 -3
-14 -8 -44 -11 -66 -2 -23 -7 -53 -9 -65 -3 -13 -7 -37 -10 -54 -3 -16 -8 -41
-10 -55 -3 -14 -7 -34 -9 -45 -2 -11 -12 -60 -21 -110 -9 -49 -19 -101 -22
-114 -23 -126 -82 -378 -177 -761 -95 -379 -328 -1123 -529 -1685 -86 -240
-233 -640 -246 -670 -5 -11 -46 -117 -91 -235 -44 -118 -85 -224 -90 -235 -5
-11 -32 -78 -59 -150 -27 -71 -98 -251 -156 -400 -59 -148 -149 -380 -202
-515 -52 -135 -100 -256 -106 -270 -5 -14 -11 -29 -13 -35 -1 -5 -21 -57 -44
-115 -22 -58 -59 -152 -81 -210 -21 -58 -43 -114 -48 -125 -11 -24 -140 -370
-175 -470 -13 -39 -45 -128 -71 -200 -156 -428 -404 -1172 -620 -1855 -15 -47
-31 -98 -35 -115 -5 -16 -25 -82 -45 -145 -20 -63 -56 -180 -80 -260 -24 -80
-50 -165 -58 -190 -9 -25 -25 -76 -36 -115 -10 -38 -33 -115 -50 -170 -17 -54
-29 -100 -27 -102 1 -1 13 23 26 55 24 60 47 112 80 187 11 25 20 47 20 51 0
3 11 29 24 57 13 29 36 80 50 114 89 214 359 810 506 1118 34 72 78 164 97
205 47 100 371 749 463 925 97 187 177 339 210 400 15 28 51 95 80 150 30 55
61 114 70 130 10 17 36 66 60 110 23 44 51 92 61 107 11 14 19 33 19 41 0 9 4
18 9 22 5 3 31 45 57 93 150 276 482 848 852 1467 243 406 342 574 403 681 9
17 36 62 58 99 23 37 41 69 41 71 0 2 13 25 28 51 16 26 62 109 104 183 364
652 655 1254 865 1785 83 211 215 580 212 595 0 3 6 23 15 45 24 62 110 359
141 485 35 142 58 240 61 260 2 14 8 43 14 65 8 34 20 93 34 170 3 19 13 77
22 135 3 14 9 48 14 75 5 28 12 73 15 101 3 28 8 61 10 75 3 13 8 51 11 84 3
33 7 71 9 84 2 13 7 61 10 105 4 45 8 92 11 106 24 148 24 1016 0 1260 -2 19
-7 78 -10 130 -4 52 -9 113 -11 135 -2 22 -7 69 -10 105 -4 36 -8 79 -10 95
-2 17 -6 55 -10 85 -3 30 -7 69 -9 85 -2 17 -7 55 -10 86 -4 31 -8 66 -11 77
-2 12 -6 47 -10 79 -3 32 -7 69 -10 83 -2 14 -7 43 -10 65 -3 22 -10 72 -16
110 -6 39 -12 86 -15 105 -2 19 -9 60 -14 90 -5 30 -12 73 -15 95 -7 49 -14
92 -20 125 -3 14 -7 43 -10 65 -3 22 -12 76 -20 120 -8 44 -17 96 -20 115 -11
68 -56 325 -59 335 -1 5 -35 -53 -74 -129 -273 -526 -567 -854 -783 -873 -82
-8 -135 14 -196 81 -58 64 -90 127 -153 304 -87 248 -226 613 -286 750 -8 17
-20 47 -28 65 -89 207 -133 307 -183 417 -41 88 -288 586 -341 685 -79 149
-143 265 -173 317 -16 27 -29 50 -29 52 0 8 -300 516 -390 661 -103 166 -322
509 -380 595 -20 30 -64 95 -96 145 -74 112 -77 116 -144 188 -79 85 -285 235
-437 317 -15 8 -67 41 -115 72 -47 31 -111 70 -142 87 -30 17 -124 72 -208
122 -84 50 -173 103 -198 117 -25 13 -49 28 -55 32 -81 59 -367 180 -465 196
-14 3 -32 7 -40 9 -8 3 -32 7 -54 11 l-38 6 6 -109 c3 -59 8 -137 11 -173 32
-372 37 -1133 11 -1470 -2 -19 -6 -75 -10 -125 -4 -49 -9 -101 -11 -115 -2
-14 -7 -52 -10 -85 -7 -68 -36 -268 -50 -335 -2 -14 -7 -36 -9 -50 -2 -14 -9
-45 -15 -70 -5 -25 -12 -56 -14 -70 -14 -73 -72 -282 -112 -405 -198 -599
-537 -1116 -992 -1510 -89 -78 -92 -80 -183 -150 -36 -28 -67 -52 -70 -55 -9
-10 -245 -168 -300 -201 -385 -229 -858 -464 -1225 -609 -11 -4 -40 -17 -65
-28 -227 -99 -877 -322 -1350 -463 -91 -27 -181 -54 -200 -61 -19 -6 -48 -15
-65 -19 -30 -7 -416 -116 -510 -144 -52 -15 -270 -75 -460 -126 -182 -49 -537
-147 -569 -156 -20 -6 -20 -6 0 14 40 41 554 395 699 480 11 6 97 58 190 115
228 138 479 294 695 433 793 509 1292 805 1715 1018 313 157 628 290 909 382
137 45 138 48 31 61 -33 3 -69 8 -80 9 -11 2 -45 6 -75 9 -30 3 -71 8 -90 11
-32 4 -145 13 -265 21 -77 5 -541 5 -620 0 -64 -4 -97 -6 -265 -22 -30 -2 -66
-6 -80 -9 -14 -2 -47 -7 -75 -10 -27 -3 -90 -13 -140 -21 -49 -8 -103 -17
-120 -20 -16 -3 -70 -14 -120 -25 -49 -11 -98 -22 -108 -24 -73 -16 -273 -71
-377 -104 -689 -216 -1381 -595 -2015 -1105 -55 -44 -102 -83 -105 -86 -3 -3
-25 -22 -50 -44 -222 -191 -517 -485 -786 -781 -45 -50 -94 -106 -110 -125
-16 -19 -36 -42 -44 -50 -8 -9 -40 -45 -71 -80 -149 -173 -198 -229 -239 -280
-25 -30 -51 -62 -60 -70 -8 -8 -32 -36 -53 -62 -21 -26 -43 -53 -50 -60 -7 -7
-35 -40 -62 -73 -28 -33 -60 -71 -71 -85 -494 -588 -939 -1057 -1289 -1355
-38 -33 -72 -62 -75 -65 -3 -3 -36 -30 -75 -60 -38 -30 -72 -57 -75 -60 -23
-24 -328 -249 -450 -332 -513 -348 -1049 -575 -1495 -633 -27 -3 -63 -8 -80
-10 -179 -24 -393 -22 -620 6 -84 11 -301 56 -322 68 -7 4 11 18 45 36 126 65
375 218 502 311 190 137 318 247 482 414 170 173 170 173 321 365 246 312 483
787 581 1163 l23 89 -61 -35 c-70 -40 -345 -176 -426 -211 -30 -12 -68 -29
-85 -36 -286 -124 -837 -302 -1115 -360 -8 -2 -44 -10 -80 -18 -69 -16 -308
-66 -350 -73 -14 -3 -59 -11 -100 -19 -74 -14 -329 -58 -402 -69 -21 -3 -55
-9 -75 -12 -21 -3 -49 -7 -63 -9 -14 -3 -43 -7 -65 -10 -22 -3 -65 -10 -95
-15 -30 -5 -75 -12 -100 -15 -25 -3 -70 -10 -100 -15 -30 -5 -77 -12 -105 -15
-27 -4 -77 -10 -110 -15 -33 -5 -78 -12 -100 -15 -22 -3 -51 -8 -65 -10 -14
-2 -45 -7 -70 -10 -25 -3 -56 -8 -70 -10 -29 -5 -37 -7 -220 -34 -74 -11 -160
-25 -190 -31 -30 -6 -75 -13 -100 -16 -24 -3 -47 -7 -50 -9 -4 -2 -28 -7 -55
-11 -27 -3 -132 -23 -233 -43 -101 -20 -185 -34 -186 -31 -2 3 13 55 33 115
20 61 37 113 38 118 1 4 31 96 67 205 35 108 76 235 91 282 57 182 77 246 85
275 4 17 22 80 40 140 53 185 124 486 144 610 3 17 12 71 20 120 8 50 18 117
22 150 3 33 8 74 10 90 12 94 18 255 18 442 l1 212 26 -77 c149 -439 427 -664
729 -592 25 6 48 11 52 11 13 0 140 70 177 97 66 49 169 161 225 246 50 74
135 239 140 270 1 6 4 16 8 21 7 11 55 186 62 225 6 36 20 143 21 159 0 11
-32 21 -125 37 -69 12 -156 30 -195 39 -38 9 -79 18 -89 20 -140 30 -353 113
-464 182 -408 255 -262 656 429 1169 217 162 529 361 799 511 288 159 879 458
1095 553 152 67 893 418 1140 540 532 263 989 526 1295 745 36 25 76 54 90 63
14 9 30 21 36 27 6 5 37 28 68 50 31 22 72 51 90 65 19 14 44 32 56 40 45 31
450 330 460 340 3 3 57 46 120 95 63 49 124 97 135 107 11 9 54 44 95 78 72
60 170 143 216 185 145 131 194 177 298 281 154 154 277 289 435 479 94 114
276 379 378 550 118 199 296 562 333 680 7 22 16 45 20 50 30 39 229 689 216
703 -3 3 -6 1 -6 -4 0 -12 -109 -209 -157 -283 -72 -113 -205 -301 -250 -356
-5 -5 -24 -30 -43 -55 -51 -64 -120 -146 -249 -292 -13 -15 -27 -25 -31 -23
-14 9 -120 238 -120 260 0 2 6 2 13 0 15 -6 54 29 123 110 227 267 451 726
579 1188 13 47 19 57 38 58 12 0 30 2 40 4 9 2 50 6 90 10 39 3 79 8 87 10 8
2 53 6 100 10 47 3 96 8 110 10 14 2 59 7 100 10 41 3 86 8 100 10 14 2 63 7
110 11 47 3 92 8 101 9 8 2 49 6 91 9 41 4 85 8 96 11 11 2 53 7 94 10 40 4
75 8 78 10 3 2 34 6 70 10 36 4 72 8 80 10 8 2 51 8 95 14 44 7 100 16 125 21
25 5 56 12 70 14 111 18 314 67 460 113 674 208 1145 615 1454 1256 35 73 75
158 89 189 l25 57 49 -5 c263 -26 458 -226 586 -599 19 -55 56 -144 81 -198
26 -53 55 -121 66 -150 23 -62 49 -102 50 -76 0 8 16 56 36 105 19 49 55 143
78 209 51 142 81 211 158 362 47 93 139 259 178 323 5 8 37 60 72 115 34 55
131 206 216 335 277 420 344 526 445 701 71 124 177 341 177 362 0 7 4 17 9
22 7 8 61 164 74 214 2 8 16 -30 31 -85 30 -103 160 -495 241 -719 74 -208
135 -384 160 -465 13 -41 31 -97 40 -125 8 -27 22 -70 30 -95 22 -67 101 -385
116 -461 l12 -67 -33 -58 c-71 -129 -163 -220 -276 -275 -78 -38 -222 -75
-235 -61 -7 8 -7 9 -68 242 -39 150 -95 394 -105 455 -3 17 -7 41 -10 55 -4
14 -13 68 -22 120 -8 52 -17 106 -21 120 l-5 25 -10 -25 c-10 -27 -44 -170
-52 -217 -55 -341 -49 -781 14 -1169 7 -38 14 -82 17 -99 21 -138 87 -355 143
-471 144 -301 320 -308 508 -22 26 41 64 107 83 146 38 79 52 92 38 35 -35
-148 -85 -342 -124 -478 -25 -88 -48 -167 -50 -175 -2 -8 -18 -62 -36 -120
-17 -58 -35 -118 -39 -135 -4 -16 -26 -95 -48 -175 -23 -80 -57 -217 -77 -305
-19 -88 -37 -168 -39 -177 -6 -24 14 -22 46 5 15 12 49 38 75 57 27 19 50 37
53 40 3 3 28 23 55 45 28 22 61 50 75 62 14 12 36 31 50 43 38 33 148 141 210
207 261 276 452 599 555 940 19 62 37 128 40 145 3 17 7 34 9 37 2 3 7 24 10
46 3 22 8 51 11 65 18 87 30 254 30 430 -1 322 -42 605 -145 999 -49 185 -210
674 -259 786 -5 11 -48 119 -96 240 -48 121 -182 441 -297 710 -207 484 -293
691 -381 915 -61 156 -127 335 -127 347 0 5 -6 17 -12 26 -11 15 -30 -11 -141
-195z m-6491 -3678 c101 -122 231 -237 379 -334 l62 -41 -19 -60 c-25 -78
-109 -362 -193 -650 -84 -290 -151 -490 -227 -677 -73 -182 -184 -408 -199
-408 -7 0 -10 2 -7 6 3 3 2 22 -3 42 -29 129 -32 615 -5 757 2 11 7 54 11 95
4 41 9 82 10 90 1 8 6 44 11 80 4 36 8 67 9 70 1 3 5 34 9 70 5 36 10 74 12
85 2 11 6 44 10 73 3 29 7 61 9 70 1 9 6 46 10 82 4 36 9 79 11 95 18 147 23
432 11 600 -6 87 -6 89 11 65 9 -13 49 -63 88 -110z m-7039 -25522 c-3 -7 -5
-2 -5 12 0 14 2 19 5 13 2 -7 2 -19 0 -25z m11 -43 c-3 -3 -9 2 -12 12 -6 14
-5 15 5 6 7 -7 10 -15 7 -18z m9 -57 c-3 -8 -6 -5 -6 6 -1 11 2 17 5 13 3 -3
4 -12 1 -19z"/>
<path d="M15137 26008 c-40 -60 -192 -202 -298 -279 -252 -184 -555 -314 -949
-408 -130 -31 -496 -106 -565 -116 -22 -4 -47 -8 -56 -11 -9 -2 -52 -11 -95
-19 -741 -135 -1159 -312 -1470 -620 -91 -91 -128 -136 -206 -250 -61 -90
-165 -297 -199 -395 l-22 -66 36 -116 c20 -63 37 -120 37 -127 0 -31 21 1 79
122 125 259 286 449 501 589 102 67 340 180 340 161 0 -5 -16 -34 -108 -199
-58 -104 -73 -152 -74 -233 -2 -120 48 -229 159 -344 l46 -48 74 2 c273 7 544
117 737 299 137 129 218 277 254 465 3 17 6 74 6 128 l0 97 40 1 c23 1 55 2
71 4 17 1 66 5 110 9 590 49 918 165 1165 415 210 212 344 519 404 924 7 43 4
45 -17 15z"/>
</g>
</svg>
